#!OML:ASF F:\VICON\USERDATA\INSTALL\rory3\rory3.ASF
:FULLY-SPECIFIED
:DEGREES
890
root -4.82818 16.5235 5.68803 -514.541 -18.0414 -540.151
lowerback -15.7118 -2.12157 4.26725
upperback -14.0366 -5.87116 3.09461
thorax -6.36621 -4.29364 0.470224
lowerneck -6.97002 2.03622 -2.8611
upperneck 17.0277 2.22746 2.13701
head 6.24573 0.812064 1.28956
rclavicle 3.93594e-014 -4.77083e-014
rhumerus 328.831 -30.5039 -369.984
rradius 14.9933
rwrist 15.5957
rhand 12.4145 5.52324
rfingers 7.12502
rthumb 37.4127 -20.4334
lclavicle 3.93594e-014 -4.77083e-014
lhumerus 37.7012 -47.1488 37.4464
lradius 31.7435
lwrist -7.89725
lhand 23.9612 19.0799
lfingers 7.12502
lthumb 48.2058 41.1962
rfemur -57.8479 10.3305 16.8981
rtibia 27.0891
rfoot -49.9749 -39.4073
rtoes 55.6748
lfemur -2.67966 15.3414 -23.6258
ltibia 13.0559
lfoot -31.0217 31.5214
ltoes -22.6503
891
root -4.82705 16.5648 5.52977 -514.126 -17.7628 -540.245
lowerback -16.1133 -1.96229 3.96859
upperback -14.4905 -5.80897 3.03488
thorax -6.64657 -4.32121 0.59067
lowerneck -6.67633 2.0717 -2.91429
upperneck 17.4142 2.17596 2.38609
head 6.31354 0.775927 1.37208
rclavicle -6.65929e-014 -4.05521e-014
rhumerus 329.213 -30.8012 -368.842
rradius 14.8459
rwrist 17.2076
rhand 12.0668 5.19025
rfingers 7.12502
rthumb 37.0839 -20.8525
lclavicle -6.65929e-014 -4.05521e-014
lhumerus 38.0269 -46.1759 37.2221
lradius 31.4146
lwrist -9.11733
lhand 23.9286 18.9721
lfingers 7.12502
lthumb 48.1757 41.1025
rfemur -57.8443 10.8208 16.7521
rtibia 27.3039
rfoot -50.3609 -39.439
rtoes 55.4444
lfemur -1.40706 14.9321 -23.5361
ltibia 10.8419
lfoot -29.3696 32.4617
ltoes -22.5035
892
root -4.82617 16.6107 5.37137 -513.864 -17.5469 -540.52
lowerback -16.3184 -1.88434 3.50287
upperback -14.9981 -5.83111 2.94815
thorax -7.0868 -4.37855 0.791664
lowerneck -5.88359 2.05632 -2.98394
upperneck 17.6444 2.0627 2.39027
head 6.24988 0.679664 1.36715
rclavicle -2.68359e-014 -7.95139e-016
rhumerus 329.509 -31.1031 -367.504
rradius 14.6739
rwrist 19.1028
rhand 11.9376 5.28257
rfingers 7.12502
rthumb 36.9617 -20.7918
lclavicle -2.68359e-014 -7.95139e-016
lhumerus 38.868 -46.2492 35.8414
lradius 31.4665
lwrist -9.31492
lhand 23.2532 19.3898
lfingers 7.12502
lthumb 47.5527 41.8086
rfemur -57.4733 11.2398 16.5688
rtibia 27.3945
rfoot -50.7045 -39.631
rtoes 55.2107
lfemur 0.0635942 15.0332 -23.5068
ltibia 8.6332
lfoot -27.155 32.9995
ltoes -22.4324
893
root -4.83602 16.6571 5.20997 -513.74 -17.6871 -540.539
lowerback -16.6369 -1.82028 3.52297
upperback -15.3365 -5.89135 2.85966
thorax -7.32527 -4.47607 0.693684
lowerneck -5.40401 2.08151 -2.97833
upperneck 17.745 2.02097 2.49703
head 6.19746 0.646907 1.39122
rclavicle 1.27222e-014 -1.59028e-015
rhumerus 329.605 -32.4581 -365.853
rradius 14.4201
rwrist 21.6684
rhand 11.8339 5.28033
rfingers 7.12502
rthumb 36.8636 -20.8193
lclavicle 1.27222e-014 -1.59028e-015
lhumerus 39.5631 -45.9393 34.6846
lradius 31.5751
lwrist -9.37344
lhand 22.3065 19.5042
lfingers 7.12502
lthumb 46.6774 42.3113
rfemur -56.8662 11.3777 16.7298
rtibia 27.2518
rfoot -51.4635 -39.2566
rtoes 55.2394
lfemur 1.4366 14.9062 -23.0512
ltibia 6.82353
lfoot -25.5198 33.2006
ltoes -21.5787
894
root -4.83692 16.6966 5.05747 -513.431 -17.7134 -540.767
lowerback -16.8522 -1.8202 3.2376
upperback -15.7596 -6.02005 2.78546
thorax -7.68995 -4.58981 0.791382
lowerneck -4.90162 2.1644 -2.93754
upperneck 17.7246 2.07355 2.55926
head 6.10132 0.663695 1.4005
rclavicle -2.78299e-015 -3.10104e-014
rhumerus 329.882 -33.5658 -364.504
rradius 14.3376
rwrist 23.6519
rhand 11.7612 4.98639
rfingers 7.12502
rthumb 36.7948 -21.1308
lclavicle -2.78299e-015 -3.10104e-014
lhumerus 40.8683 -45.5785 33.1726
lradius 31.124
lwrist -8.93069
lhand 21.5156 18.6972
lfingers 7.12502
lthumb 45.9442 41.8149
rfemur -56.5911 11.4639 16.5505
rtibia 27.1914
rfoot -52.1075 -38.9046
rtoes 55.1395
lfemur 3.31583 14.7755 -22.8334
ltibia 3.75453
lfoot -23.4227 33.7689
ltoes -19.9528
